# xmcd CD database file
#
# Track frame offsets:
#	187
#	17677
#	49737
#	67360
#	80867
#	100180
#	114927
#	139907
#	152775
#	173865
#	193045
#	210242
#	230607
#	264740
#
# Disc length: 3742 seconds
#
# Revision: 3
# Processed by: cddbd v1.5.2PL0 Copyright (c) Steve Scherf et al.
# Submitted via: CDex 1.75
#
DISCID=c80e9c0e
DTITLE=Bob Marley - Legend
DYEAR=1995
DGENRE=Reggae
TTITLE0=Bob Marley and the Wailers - 1
TTITLE1=Bob Marley and the Wailers - 2
TTITLE2=Bob Marley and the Wailers - 3
TTITLE3=Bob Marley and the Wailers - 4
TTITLE4=Bob Marley and the Wailers - 5
TTITLE5=Bob Marley and the Wailers - 6
TTITLE6=Bob Marley and the Wailers - 7
TTITLE7=Bob Marley and the Wailers - 8
TTITLE8=Bob Marley and the Wailers - 9
TTITLE9=Bob Marley and the Wailers - 10
TTITLE10=Bob Marley and the Wailers - 11
TTITLE11=Bob Marley and the Wailers - 12
TTITLE12=Bob Marley and the Wailers - 13
TTITLE13=Bob Marley and the Wailers - 14
EXTD=f YEAR: 1995
EXTT0=
EXTT1=
EXTT2=
EXTT3=
EXTT4=
EXTT5=
EXTT6=
EXTT7=
EXTT8=
EXTT9=
EXTT10=
EXTT11=
EXTT12=
EXTT13=
PLAYORDER=
